<?xml version="1.0" encoding="utf-8"?>
<!-- Generator: Adobe Illustrator 21.0.2, SVG Export Plug-In . SVG Version: 6.00 Build 0)  -->
<svg version="1.1" id="Layer_1" xmlns="http://www.w3.org/2000/svg" xmlns:xlink="http://www.w3.org/1999/xlink" x="0px" y="0px"
	 viewBox="0 0 100 125" style="enable-background:new 0 0 100 125;" xml:space="preserve">
<style type="text/css">
	.st0{fill:#375A24;}
</style>
<polygon class="st0" points="69.8,81.3 65.1,73.1 67.3,73.1 63.3,64.1 65.6,64.1 62.3,56.9 64.3,56.9 60.3,50 62.6,50 58.2,41.2 
	59.9,41.2 56.4,33.4 58.9,33.4 55.4,26.6 57.7,26.6 53.4,20 55.2,20 50,8.7 44.8,20 46.6,20 42.3,26.6 44.6,26.6 41.1,33.4 
	43.6,33.4 40.1,41.2 41.8,41.2 37.4,50 39.7,50 35.7,56.9 37.7,56.9 34.4,64.1 36.7,64.1 35.7,66.2 32.7,73.1 34.9,73.1 30.2,81.3 
	47.4,81.3 46.7,91.3 50,91.3 53.3,91.3 52.6,81.3 "/>
</svg>
