<?xml version="1.0" encoding="utf-8"?>
<!-- Generator: Adobe Illustrator 21.0.2, SVG Export Plug-In . SVG Version: 6.00 Build 0)  -->
<svg version="1.1" id="Layer_1" xmlns="http://www.w3.org/2000/svg" xmlns:xlink="http://www.w3.org/1999/xlink" x="0px" y="0px"
	 viewBox="0 0 108 108" style="enable-background:new 0 0 108 108;" xml:space="preserve">
<style type="text/css">
	.st0{fill:#375A24;}
</style>
<path class="st0" d="M25.6,91.4c-5.2-1.3-9.7-5-11.9-10.3c-3.6-8.8,0.7-18.9,9.6-22.4c8.8-3.6,18.9,0.7,22.4,9.6
	c0.6,1.6,1,3.2,1.2,4.9C35.8,74.8,29.5,84.2,25.6,91.4 M25.1,92.2c-1.8,3.4-3,6.1-3.9,7.1c-2.9,3.2-5.4,5.3-5.4,5.3
	s9.5-1.6,21.7,1.8c12.2,3.4,23.7-5.9,26.2-13c2.5-7.1,12.9-9.6,12.9-9.6S89.8,81.5,92.1,65c2.4-16.5,5.7-13.4,12.1-24.6
	c5.1-8.9,1.3-19.5-0.5-23.4c-0.2-3-5.5-16.2-5.5-16.2c-1,3.3-9.8,8.5-9.8,8.5l0,0c-2.3,1-5.7,2.3-10.1,3.7
	c-8.9,2.9-15.5,16.5-15.5,16.5s-0.9,2.9-13.3,8.4c0,0-5.5,2.5-8.1,9.3c-2.6,6.8-9.1,6.5-15.3,8.2c-6.2,1.7-14.9,5.5-16.9,21.8
	c0,0-2.9,5.2-8,7.3c0,0,11.1,1.9,13.8,3.9C17.1,90,20.4,92.3,25.1,92.2 M67.6,48.7C56,55.9,55.7,64,55.3,64.2
	c-0.3,0.1-1.2,3.3-3.6,5.9c-3.9-1.8-7.2-5-8.9-9.3c-3.6-8.8,0.7-18.9,9.6-22.4c7.4-3,15.7-0.4,20.3,5.7
	C71.9,45.2,70.6,46.8,67.6,48.7z M73,42.1c0,0,0.1,0.4-0.1,1.1c-1.5-1.5-2.7-3.3-3.6-5.4c-3.7-8.8,0.4-18.9,9.2-22.6
	c2.9-1.2,5.9-1.6,8.8-1.2C73,25,73,42.1,73,42.1z"/>
</svg>
