<?xml version="1.0" encoding="utf-8"?>
<!-- Generator: Adobe Illustrator 21.0.2, SVG Export Plug-In . SVG Version: 6.00 Build 0)  -->
<svg version="1.1" id="Layer_1" xmlns="http://www.w3.org/2000/svg" xmlns:xlink="http://www.w3.org/1999/xlink" x="0px" y="0px"
	 viewBox="0 0 108 108" style="enable-background:new 0 0 108 108;" xml:space="preserve">
<style type="text/css">
	.st0{fill:#375A24;}
</style>
<g>
	<path class="st0" d="M64.4,106.6c-0.2-7.4-0.4-14.9-0.7-22.3c-0.2-4-0.8-7.9-1.3-11.8c-0.2-1.8,0-2.3,2-3.4c0.4,3,0.8,5.9,1.1,8.8
		c1,9.1,1.4,18.2,1.3,27.3c0,0.5,0,0.9-0.1,1.4C66,106.6,65.2,106.6,64.4,106.6z"/>
	<path class="st0" d="M62.8,67.4c-1.4-4.3-1.3-8.2,0.7-12c0.5-1,1.2-2.1,2-2.9c1.1-1.1,1.4-2.4,1.6-3.9c0.5-3.5,1.1-7,1.6-10.5
		c0-0.1,0.1-0.1,0.3-0.3c-0.1,3-0.3,5.9-0.4,8.8c-0.1,2.3-0.2,4.6-0.2,6.9C68.6,58.8,66.9,63.5,62.8,67.4z"/>
	<path class="st0" d="M60.8,56.5c-1.9-4.8-1.8-9.4,1-13.5c1.5-2.3,2-4.7,2.4-7.3c0.3-2.3,0.6-4.7,1.1-7c0,1,0,2.1,0,3.1
		c-0.1,4,0.1,8,0.4,12c0.4,4.4-1.3,8.4-4,11.8C61.5,55.8,61.2,56.1,60.8,56.5z"/>
	<path class="st0" d="M58.2,56c-2.4-0.4-4.6-1.3-6.3-3.1c-1.4-1.4-2.7-2.9-3.6-4.7c-1.1-2.2-2.5-4.1-4-6.1c-1.6-2.1-3.3-4.3-4.8-6.5
		c0.8,0.8,1.6,1.6,2.5,2.4c2.2,2.2,4.5,4.5,6.7,6.7c0.4,0.4,1.1,0.7,1.6,0.9c2.7,0.7,5,1.9,6.8,4.1c0.2,0.3,0.4,0.6,0.4,0.9
		C57.7,52.4,57.9,54.1,58.2,56z"/>
	<path class="st0" d="M40.9,45.3c2.6,2.4,5.1,4.8,7.7,7.1c0.8,0.7,1.5,1.6,2.3,2.3c0.3,0.3,0.8,0.5,1.2,0.6c2.9,0.8,5.4,2.1,7.2,4.6
		c0.3,0.5,0.5,1.1,0.5,1.6c0.2,1.6,0.2,3.2,0.4,4.9c-2.4-0.5-4.5-1.8-6.2-3.6c-1.1-1.1-2.1-2.4-2.7-3.8c-1.2-2.8-3.1-5-4.8-7.3
		c-1.7-2.2-3.5-4.4-5.2-6.7C41.1,45.2,41,45.2,40.9,45.3z"/>
	<path class="st0" d="M57.5,45.3c-1.5-4.2-1.4-8.1,1-11.6c1.3-2,1.7-4.1,2.1-6.3c0.4-2.6,0.8-5.2,1-6.7c0,3,0,7,0,11
		c0,1.7,0,3.5-0.2,5.2C61.1,40.1,59.7,42.8,57.5,45.3z"/>
	<path class="st0" d="M55,45c-3.6-0.8-6.2-2.8-8-5.8c-1.8-2.8-3.6-5.6-5.4-8.3c-0.9-1.4-1.9-2.7-2.7-4.2c1.3,1.4,2.5,2.7,3.8,4.1
		c0.7,0.8,1.4,1.5,2.1,2.3c1.5,1.7,2.9,3.6,5.5,4c0.8,0.1,1.6,0.8,2.3,1.3c1.1,0.8,2,1.8,2,3.4C54.5,42.7,54.8,43.8,55,45z"/>
	<path class="st0" d="M39.2,18.9c1.6,2.3,3.3,4.6,4.9,6.9c0.8,1.2,1.6,2,3.1,2.4c2.6,0.7,4.7,2.3,5.3,5.3c0.2,0.7,0.5,1.4,0.8,2.3
		c-2.2-0.3-4.1-1.1-5.6-2.5c-1-1-1.9-2.1-2.6-3.3c-2-3.3-3.8-6.7-5.7-10c-0.2-0.3-0.3-0.6-0.4-0.9C39.1,19,39.1,19,39.2,18.9z"/>
	<path class="st0" d="M55.4,34.9c-2-3.8-1.8-7.4,0-11c0.4-0.9,0.5-1.7,0.5-2.6c-0.2-3.2-0.4-6.4-0.6-9.6c0.1,0,0.2,0,0.3,0
		c0.7,5.3,1.6,10.6,2.1,15.9C58,30.1,56.9,32.5,55.4,34.9z"/>
	<path class="st0" d="M39.9,12.5c1.6,2.3,3.1,4.6,4.8,6.9c0.4,0.6,1.1,1.2,1.7,1.5c2.5,1.4,3.8,3.5,4.3,6.5
		c-1.6-0.3-2.9-1.1-3.9-2.2c-0.7-0.8-1.4-1.7-1.9-2.7c-1.6-2.9-3.1-5.9-4.7-8.9c-0.2-0.4-0.4-0.7-0.5-1.1
		C39.7,12.6,39.8,12.5,39.9,12.5z"/>
	<path class="st0" d="M41.5,1.4c1.1,2.5,2.1,5.1,3.2,7.6c0.8,2,1.5,3.9,3,5.6c1.3,1.6,1.9,3.6,1.9,5.6c-2.9-0.9-4-3-4.3-5.8
		c-0.2-2-1-4-1.6-5.9c-0.7-2.4-1.6-4.7-2.4-7.1C41.3,1.4,41.4,1.4,41.5,1.4z"/>
	<path class="st0" d="M50.4,7.9c1,3.6,2,7.2,3,10.8c0.7,2.4,0.1,4.7-1.1,7c-1.3-1.8-1.8-4-1.2-5.9c0.9-3.2-0.1-6.2-0.4-9.3
		c-0.1-0.8-0.2-1.6-0.4-2.5C50.3,7.9,50.3,7.9,50.4,7.9z"/>
</g>
</svg>
