<?xml version="1.0" encoding="utf-8"?>
<!-- Generator: Adobe Illustrator 21.0.2, SVG Export Plug-In . SVG Version: 6.00 Build 0)  -->
<svg version="1.1" id="Layer_1" xmlns="http://www.w3.org/2000/svg" xmlns:xlink="http://www.w3.org/1999/xlink" x="0px" y="0px"
	 viewBox="0 0 432 216" style="enable-background:new 0 0 432 216;" xml:space="preserve">
<style type="text/css">
	.st0{fill:#395B2B;}
</style>
<polygon class="st0" points="267.5,189.4 255.3,168.1 261,168.1 250.6,144.7 256.6,144.7 248,125.9 253.2,125.9 242.8,108 
	248.8,108 237.3,85.1 241.8,85.1 232.6,64.8 239.2,64.8 230,47.1 236,47.1 224.8,30 229.5,30 216,0.6 202.5,30 207.2,30 196,47.1 
	202,47.1 192.8,64.8 199.4,64.8 190.2,85.1 194.7,85.1 183.2,108 189.2,108 178.8,125.9 184,125.9 175.4,144.7 181.4,144.7 
	178.8,150.1 171,168.1 176.7,168.1 164.5,189.4 209.2,189.4 207.4,215.4 216,215.4 224.6,215.4 222.8,189.4 "/>
</svg>
