<?xml version="1.0" encoding="utf-8"?>
<!-- Generator: Adobe Illustrator 21.0.2, SVG Export Plug-In . SVG Version: 6.00 Build 0)  -->
<svg version="1.1" id="Layer_1" xmlns="http://www.w3.org/2000/svg" xmlns:xlink="http://www.w3.org/1999/xlink" x="0px" y="0px"
	 viewBox="0 0 108 108" style="enable-background:new 0 0 108 108;" xml:space="preserve">
<style type="text/css">
	.st0{fill:#375A24;}
</style>
<g>
	<path class="st0" d="M107.2,57.8c-0.9,12.8-6.3,24.3-14.6,33c-3-4.3-7.3-8.4-12.7-12.1C73,74.1,64.4,70.1,54.6,67
		c4.3-1.8,8.8-3.4,13.5-4.8c11-3.2,21.8-4.8,31.3-4.8C102.1,57.4,104.7,57.6,107.2,57.8z M81.3,68.5h-0.7V75h0.7V68.5z M81.3,68.5
		c1.4-0.1,2.2-1.9,1.9-3.7c-0.1-0.8-0.2-1.7-0.1-2.7c-2.2,0.5-5,4.4-2.4,6.4c-0.1-1.3,0.3-3.8,1.6-5C81,66.3,81.2,67.6,81.3,68.5z
		 M81.5,69.5c0.4,0.9,1.7,1.1,2.9,0.5c0.5-0.3,1.1-0.5,1.8-0.6c-0.6-1.1-3.2-2.4-4.6-0.2c0.8-0.2,2.7-0.4,3.5,0
		C84.2,69.1,82.1,69.3,81.5,69.5z M80.3,70.7c0.5-0.8-0.2-2-1.3-2.6c-0.5-0.2-1.1-0.6-1.6-1c-0.5,1.1,0,4,2.6,3.8
		c-0.7-0.5-1.9-1.9-2.1-2.7C78.3,68.8,79.8,70.3,80.3,70.7z M98.3,67h-0.7v6.5h0.7V67z M98.3,67c1.4-0.1,2.2-1.9,1.9-3.7
		c-0.1-0.8-0.2-1.7-0.1-2.7c-2.2,0.5-5,4.4-2.4,6.4c-0.1-1.3,0.3-3.8,1.6-5C98,64.8,98.2,66.1,98.3,67z M98.5,68
		c0.4,0.9,1.7,1.1,2.9,0.5c0.5-0.3,1.1-0.5,1.8-0.6c-0.6-1.1-3.2-2.4-4.6-0.2c0.8-0.2,2.7-0.4,3.5,0C101.2,67.6,99.1,67.8,98.5,68z
		 M97.3,69.2c0.5-0.8-0.2-2-1.3-2.6c-0.5-0.2-1.1-0.6-1.6-1c-0.5,1.1,0,4,2.6,3.8c-0.7-0.5-1.9-1.9-2.1-2.7
		C95.4,67.3,96.8,68.8,97.3,69.2z M90.5,75.6h-0.7v6.5h0.7V75.6z M90.5,75.6c1.4-0.1,2.2-1.9,1.9-3.7c-0.1-0.8-0.2-1.7-0.1-2.7
		c-2.2,0.5-5,4.4-2.4,6.4c-0.1-1.3,0.3-3.8,1.6-5C90.2,73.4,90.5,74.7,90.5,75.6z M90.7,76.6c0.4,0.9,1.7,1.1,2.9,0.5
		c0.5-0.3,1.1-0.5,1.8-0.6c-0.6-1.1-3.2-2.4-4.6-0.2c0.8-0.2,2.7-0.4,3.5,0C93.4,76.2,91.3,76.4,90.7,76.6z M89.5,77.8
		c0.5-0.8-0.2-2-1.3-2.6c-0.5-0.2-1.1-0.6-1.6-1c-0.5,1.1,0,4,2.6,3.8c-0.7-0.5-1.9-1.9-2.1-2.7C87.6,75.9,89,77.4,89.5,77.8z"/>
	<path class="st0" d="M60.1,31.2c13-5.6,25.8-8.5,36.8-8.9c6.6,8.9,10.5,19.8,10.5,31.7c0,0.2,0,0.4,0,0.5c-2.6-0.2-5.2-0.4-8-0.4
		c-7.4,0-15.5,0.9-23.9,2.7c-6.8-7.2-16.9-13.7-29.2-18.8C50.6,35.6,55.2,33.3,60.1,31.2z M78.9,34.9h-0.7v6.5h0.7V34.9z M78.9,34.9
		c1.4-0.1,2.2-1.9,1.9-3.7c-0.1-0.8-0.2-1.7-0.1-2.7c-2.2,0.5-5,4.4-2.4,6.4c-0.1-1.3,0.3-3.8,1.6-5C78.6,32.7,78.8,34,78.9,34.9z
		 M79.1,35.9c0.4,0.9,1.7,1.1,2.9,0.5c0.5-0.3,1.1-0.5,1.8-0.6c-0.6-1.1-3.2-2.4-4.6-0.2c0.8-0.2,2.7-0.4,3.5,0
		C81.8,35.5,79.7,35.7,79.1,35.9z M77.9,37.1c0.5-0.8-0.2-2-1.3-2.6c-0.5-0.2-1.1-0.6-1.6-1c-0.5,1.1,0,4,2.6,3.8
		c-0.7-0.5-1.9-1.9-2.1-2.7C75.9,35.2,77.3,36.7,77.9,37.1z M94.2,33.4h-0.7v6.5h0.7V33.4z M94.2,33.4c1.4-0.1,2.2-1.9,1.9-3.7
		c-0.1-0.8-0.2-1.7-0.1-2.7c-2.2,0.5-5,4.4-2.4,6.4c-0.1-1.3,0.3-3.8,1.6-5C93.9,31.2,94.2,32.5,94.2,33.4z M94.5,34.4
		c0.4,0.9,1.7,1.1,2.9,0.5c0.5-0.3,1.1-0.5,1.8-0.6c-0.6-1.1-3.2-2.4-4.6-0.2c0.8-0.2,2.7-0.4,3.5,0C97.1,34,95.1,34.2,94.5,34.4z
		 M93.2,35.6c0.5-0.8-0.2-2-1.3-2.6c-0.5-0.2-1.1-0.6-1.6-1c-0.5,1.1,0,4,2.6,3.8c-0.7-0.5-1.9-1.9-2.1-2.7
		C91.3,33.7,92.7,35.2,93.2,35.6z M99.7,44.7h-0.7v6.5h0.7V44.7z M99.7,44.7c1.4-0.1,2.2-1.9,1.9-3.7c-0.1-0.8-0.2-1.7-0.1-2.7
		c-2.2,0.5-5,4.4-2.4,6.4c-0.1-1.3,0.3-3.8,1.6-5C99.4,42.5,99.7,43.8,99.7,44.7z M100,45.7c0.4,0.9,1.7,1.1,2.9,0.5
		c0.5-0.3,1.1-0.5,1.8-0.6c-0.6-1.1-3.2-2.4-4.6-0.2c0.8-0.2,2.7-0.4,3.5,0C102.6,45.3,100.6,45.5,100,45.7z M98.7,46.8
		c0.5-0.8-0.2-2-1.3-2.6c-0.5-0.2-1.1-0.6-1.6-1c-0.5,1.1,0,4,2.6,3.8c-0.7-0.5-1.9-1.9-2.1-2.7C96.8,45,98.2,46.5,98.7,46.8z
		 M85.4,44.3h-0.7v6.5h0.7V44.3z M85.4,44.3c1.4-0.1,2.2-1.9,1.9-3.7c-0.1-0.8-0.2-1.7-0.1-2.7c-2.2,0.5-5,4.4-2.4,6.4
		c-0.1-1.3,0.3-3.8,1.6-5C85,42,85.3,43.3,85.4,44.3z M85.6,45.3c0.4,0.9,1.7,1.1,2.9,0.5c0.5-0.3,1.1-0.5,1.8-0.6
		c-0.6-1.1-3.2-2.4-4.6-0.2c0.8-0.2,2.7-0.4,3.5,0C88.3,44.8,86.2,45.1,85.6,45.3z M84.4,46.4c0.5-0.8-0.2-2-1.3-2.6
		c-0.5-0.2-1.1-0.6-1.6-1c-0.5,1.1,0,4,2.6,3.8c-0.7-0.5-1.9-1.9-2.1-2.7C82.4,44.6,83.8,46.1,84.4,46.4z M67.3,38.9h-0.7v6.5h0.7
		V38.9z M67.3,38.9c1.4-0.1,2.2-1.9,1.9-3.7c-0.1-0.8-0.2-1.7-0.1-2.7c-2.2,0.5-5,4.4-2.4,6.4c-0.1-1.3,0.3-3.8,1.6-5
		C67,36.7,67.3,38,67.3,38.9z M67.6,39.9c0.4,0.9,1.7,1.1,2.9,0.5c0.5-0.3,1.1-0.5,1.8-0.6c-0.6-1.1-3.2-2.4-4.6-0.2
		c0.8-0.2,2.7-0.4,3.5,0C70.2,39.5,68.2,39.7,67.6,39.9z M66.3,41.1c0.5-0.8-0.2-2-1.3-2.6c-0.5-0.2-1.1-0.6-1.6-1
		c-0.5,1.1,0,4,2.6,3.8c-0.7-0.5-1.9-1.9-2.1-2.7C64.4,39.2,65.8,40.7,66.3,41.1z"/>
	<path class="st0" d="M2,66.1c5-0.9,10.4-1.3,16.2-1.3c6.4,0,13.1,0.6,20,1.7c16,2.7,29.9,8.2,39.8,14.9c5.4,3.7,9.5,7.7,12.2,11.7
		C80.7,102,68,107.4,54,107.4C28.7,107.4,7.5,89.8,2,66.1z M19.2,77h-0.8v8.1h0.8V77z M19.2,77c1.7-0.2,2.8-2.4,2.4-4.7
		c-0.2-1-0.3-2.2-0.1-3.4c-2.7,0.6-6.2,5.5-3.1,8.1c-0.1-1.6,0.4-4.8,2-6.3C18.8,74.2,19.1,75.9,19.2,77z M19.5,78.3
		c0.5,1.1,2.2,1.3,3.6,0.6c0.6-0.3,1.4-0.7,2.2-0.8c-0.7-1.3-4-3-5.8-0.3c1-0.3,3.4-0.5,4.3,0C22.8,77.7,20.2,78,19.5,78.3z
		 M17.9,79.7c0.6-1-0.2-2.5-1.7-3.2c-0.7-0.3-1.4-0.7-2-1.3c-0.6,1.4,0,5,3.2,4.8c-0.8-0.7-2.4-2.4-2.7-3.4
		C15.5,77.4,17.3,79.3,17.9,79.7z M33.1,80.7h-0.8v8.1h0.8V80.7z M33.1,80.7c1.7-0.2,2.8-2.4,2.4-4.7c-0.2-1-0.3-2.2-0.1-3.4
		c-2.7,0.6-6.2,5.5-3.1,8.1c-0.1-1.6,0.4-4.8,2-6.3C32.7,77.9,33.1,79.6,33.1,80.7z M33.4,82c0.5,1.1,2.2,1.3,3.6,0.6
		c0.6-0.3,1.4-0.7,2.2-0.8c-0.7-1.3-4-3-5.8-0.3c1-0.3,3.4-0.5,4.3,0C36.7,81.4,34.2,81.7,33.4,82z M31.9,83.4
		c0.6-1-0.2-2.5-1.7-3.2c-0.7-0.3-1.4-0.7-2-1.3c-0.6,1.4,0,5,3.2,4.8c-0.8-0.7-2.4-2.4-2.7-3.4C29.4,81.1,31.2,83,31.9,83.4z
		 M46.7,84.8h-0.8v8.1h0.8V84.8z M46.7,84.8c1.7-0.2,2.8-2.4,2.4-4.7c-0.2-1-0.3-2.2-0.1-3.4c-2.7,0.6-6.2,5.5-3.1,8.1
		c-0.1-1.6,0.4-4.8,2-6.3C46.3,82,46.6,83.7,46.7,84.8z M47,86.1c0.5,1.1,2.2,1.3,3.6,0.6c0.6-0.3,1.4-0.7,2.2-0.8
		c-0.7-1.3-4-3-5.8-0.3c1-0.3,3.4-0.5,4.3,0C50.3,85.5,47.7,85.8,47,86.1z M45.4,87.5c0.6-1-0.2-2.5-1.7-3.2c-0.7-0.3-1.4-0.7-2-1.3
		c-0.6,1.4,0,5,3.2,4.8c-0.8-0.7-2.4-2.4-2.7-3.4C43,85.2,44.7,87.1,45.4,87.5z M58.6,88.9h-0.8V97h0.8V88.9z M58.6,88.9
		c1.7-0.2,2.8-2.4,2.4-4.7c-0.2-1-0.3-2.2-0.1-3.4c-2.7,0.6-6.2,5.5-3.1,8.1c-0.1-1.6,0.4-4.8,2-6.3C58.2,86.1,58.5,87.8,58.6,88.9z
		 M58.9,90.2c0.5,1.1,2.2,1.3,3.6,0.6c0.6-0.3,1.4-0.7,2.2-0.8c-0.7-1.3-4-3-5.8-0.3c1-0.3,3.4-0.5,4.3,0
		C62.2,89.6,59.6,89.9,58.9,90.2z M57.3,91.6c0.6-1-0.2-2.5-1.7-3.2c-0.7-0.3-1.4-0.7-2-1.3c-0.6,1.4,0,5,3.2,4.8
		c-0.8-0.7-2.4-2.4-2.7-3.4C54.9,89.3,56.6,91.2,57.3,91.6z M71.7,92.6h-0.8v8.1h0.8V92.6z M71.7,92.6c1.7-0.2,2.8-2.4,2.4-4.7
		c-0.2-1-0.3-2.2-0.1-3.4c-2.7,0.6-6.2,5.5-3.1,8.1c-0.1-1.6,0.4-4.8,2-6.3C71.3,89.8,71.6,91.5,71.7,92.6z M72,93.9
		c0.5,1.1,2.2,1.3,3.6,0.6c0.6-0.3,1.4-0.7,2.2-0.8c-0.7-1.3-4-3-5.8-0.3c1-0.3,3.4-0.5,4.3,0C75.3,93.3,72.7,93.6,72,93.9z
		 M70.4,95.3c0.6-1-0.2-2.5-1.7-3.2c-0.7-0.3-1.4-0.7-2-1.3c-0.6,1.4,0,5,3.2,4.8c-0.8-0.7-2.4-2.4-2.7-3.4
		C68,93,69.8,94.9,70.4,95.3z"/>
	<path class="st0" d="M18.2,61.5c-5.9,0-11.6,0.5-16.8,1.4C0.9,60,0.6,57,0.6,54c0-7.8,1.7-15.2,4.7-21.8c7.7,0.4,16,1.6,24.5,3.8
		c17.9,4.7,32.9,12.9,42,21.8c-1.5,0.4-3.1,0.8-4.7,1.3c-6,1.8-11.8,4.1-17,6.5l0,0c-3.7-1-7.4-1.6-11.4-2.3
		C31.7,62.1,24.7,61.5,18.2,61.5z M10.4,43.5H9.8v6.2h0.6V43.5z M10.4,43.5c1.3-0.1,2.1-1.8,1.8-3.6c-0.1-0.8-0.2-1.7-0.1-2.6
		c-2.1,0.5-4.7,4.2-2.3,6.2c-0.1-1.2,0.3-3.7,1.5-4.8C10.1,41.4,10.4,42.6,10.4,43.5z M10.7,44.5c0.4,0.8,1.7,1,2.7,0.5
		c0.5-0.3,1.1-0.5,1.7-0.6c-0.6-1-3-2.3-4.4-0.2c0.8-0.2,2.6-0.4,3.3,0C13.2,44.1,11.2,44.3,10.7,44.5z M9.5,45.6
		c0.4-0.8-0.2-1.9-1.3-2.5c-0.5-0.2-1-0.5-1.5-1c-0.5,1,0,3.8,2.5,3.6c-0.6-0.5-1.9-1.9-2-2.6C7.6,43.8,9,45.2,9.5,45.6z M21.1,46.3
		h-0.6v6.2h0.6V46.3z M21.1,46.3c1.3-0.1,2.1-1.8,1.8-3.6c-0.1-0.8-0.2-1.7-0.1-2.6c-2.1,0.5-4.7,4.2-2.3,6.2
		c-0.1-1.2,0.3-3.7,1.5-4.8C20.8,44.2,21,45.5,21.1,46.3z M21.3,47.3c0.4,0.8,1.7,1,2.7,0.5c0.5-0.3,1.1-0.5,1.7-0.6
		c-0.6-1-3-2.3-4.4-0.2c0.8-0.2,2.6-0.4,3.3,0C23.9,46.9,21.9,47.1,21.3,47.3z M20.1,48.4c0.4-0.8-0.2-1.9-1.3-2.5
		c-0.5-0.2-1-0.5-1.5-1c-0.5,1,0,3.8,2.5,3.6c-0.6-0.5-1.9-1.9-2-2.6C18.3,46.6,19.6,48.1,20.1,48.4z M31.4,49.5h-0.6v6.2h0.6V49.5z
		 M31.4,49.5c1.3-0.1,2.1-1.8,1.8-3.6c-0.1-0.8-0.2-1.7-0.1-2.6c-2.1,0.5-4.7,4.2-2.3,6.2c-0.1-1.2,0.3-3.7,1.5-4.8
		C31.1,47.3,31.4,48.6,31.4,49.5z M31.7,50.4c0.4,0.8,1.7,1,2.7,0.5c0.5-0.3,1.1-0.5,1.7-0.6c-0.6-1-3-2.3-4.4-0.2
		c0.8-0.2,2.6-0.4,3.3,0C34.2,50,32.2,50.2,31.7,50.4z M30.5,51.5c0.4-0.8-0.2-1.9-1.3-2.5c-0.5-0.2-1-0.5-1.5-1
		c-0.5,1,0,3.8,2.5,3.6c-0.6-0.5-1.9-1.9-2-2.6C28.6,49.8,30,51.2,30.5,51.5z M40.5,52.6h-0.6v6.2h0.6V52.6z M40.5,52.6
		c1.3-0.1,2.1-1.8,1.8-3.6c-0.1-0.8-0.2-1.7-0.1-2.6c-2.1,0.5-4.7,4.2-2.3,6.2c-0.1-1.2,0.3-3.7,1.5-4.8
		C40.2,50.5,40.5,51.7,40.5,52.6z M40.8,53.6c0.4,0.8,1.7,1,2.7,0.5c0.5-0.3,1.1-0.5,1.7-0.6c-0.6-1-3-2.3-4.4-0.2
		c0.8-0.2,2.6-0.4,3.3,0C43.3,53.2,41.3,53.4,40.8,53.6z M39.6,54.7c0.4-0.8-0.2-1.9-1.3-2.5c-0.5-0.2-1-0.5-1.5-1
		c-0.5,1,0,3.8,2.5,3.6c-0.6-0.5-1.9-1.9-2-2.6C37.7,52.9,39.1,54.3,39.6,54.7z M50.6,55.4H50v6.2h0.6V55.4z M50.6,55.4
		c1.3-0.1,2.1-1.8,1.8-3.6c-0.1-0.8-0.2-1.7-0.1-2.6c-2.1,0.5-4.7,4.2-2.3,6.2c-0.1-1.2,0.3-3.7,1.5-4.8
		C50.3,53.3,50.5,54.6,50.6,55.4z M50.8,56.4c0.4,0.8,1.7,1,2.7,0.5c0.5-0.3,1.1-0.5,1.7-0.6c-0.6-1-3-2.3-4.4-0.2
		c0.8-0.2,2.6-0.4,3.3,0C53.3,56,51.4,56.2,50.8,56.4z M49.6,57.5c0.4-0.8-0.2-1.9-1.3-2.5c-0.5-0.2-1-0.5-1.5-1
		c-0.5,1,0,3.8,2.5,3.6c-0.6-0.5-1.9-1.9-2-2.6C47.8,55.7,49.1,57.2,49.6,57.5z"/>
	<path class="st0" d="M30.6,32.8c-8.2-2.2-16.2-3.4-23.8-3.9C15.8,12.1,33.6,0.6,54,0.6c16.1,0,30.6,7.2,40.4,18.5
		c-10.9,0.8-23.2,3.8-35.6,9.1c-5.8,2.5-11.2,5.3-16.1,8.3l0,0C38.8,35,34.9,34,30.6,32.8z M43.8,25.7h-0.5v5.1h0.5V25.7z
		 M43.8,25.7c1.1-0.1,1.8-1.5,1.5-2.9c-0.1-0.6-0.2-1.4-0.1-2.2c-1.7,0.4-3.9,3.5-1.9,5.1c-0.1-1,0.3-3,1.3-4
		C43.6,24,43.8,25,43.8,25.7z M44,26.5c0.3,0.7,1.4,0.8,2.3,0.4c0.4-0.2,0.9-0.4,1.4-0.5c-0.5-0.8-2.5-1.9-3.6-0.2
		c0.6-0.2,2.2-0.3,2.7,0C46.1,26.2,44.5,26.4,44,26.5z M43,27.4c0.4-0.7-0.1-1.6-1.1-2c-0.4-0.2-0.9-0.4-1.3-0.8
		c-0.4,0.9,0,3.1,2.1,3c-0.5-0.4-1.5-1.5-1.7-2.2C41.5,26,42.6,27.2,43,27.4z M40.1,13h-0.5v5.1h0.5V13z M40.1,13
		c1.1-0.1,1.8-1.5,1.5-2.9c-0.1-0.6-0.2-1.4-0.1-2.2c-1.7,0.4-3.9,3.5-1.9,5.1c-0.1-1,0.3-3,1.3-4C39.9,11.2,40.1,12.3,40.1,13z
		 M40.3,13.8c0.3,0.7,1.4,0.8,2.3,0.4c0.4-0.2,0.9-0.4,1.4-0.5c-0.5-0.8-2.5-1.9-3.6-0.2c0.6-0.2,2.2-0.3,2.7,0
		C42.4,13.5,40.8,13.6,40.3,13.8z M39.3,14.7c0.4-0.7-0.1-1.6-1.1-2c-0.4-0.2-0.9-0.4-1.3-0.8c-0.4,0.9,0,3.1,2.1,3
		c-0.5-0.4-1.5-1.5-1.7-2.2C37.8,13.2,38.9,14.4,39.3,14.7z M57.8,9.3h-0.5v5.1h0.5V9.3z M57.8,9.3c1.1-0.1,1.8-1.5,1.5-2.9
		c-0.1-0.6-0.2-1.4-0.1-2.2c-1.7,0.4-3.9,3.5-1.9,5.1c-0.1-1,0.3-3,1.3-4C57.5,7.6,57.7,8.6,57.8,9.3z M58,10.1
		c0.3,0.7,1.4,0.8,2.3,0.4c0.4-0.2,0.9-0.4,1.4-0.5c-0.5-0.8-2.5-1.9-3.6-0.2c0.6-0.2,2.2-0.3,2.7,0C60.1,9.8,58.4,9.9,58,10.1z
		 M57,11c0.4-0.7-0.1-1.6-1.1-2c-0.4-0.2-0.9-0.4-1.3-0.8c-0.4,0.9,0,3.1,2.1,3C56.2,10.8,55.2,9.6,55,9C55.4,9.6,56.6,10.7,57,11z
		 M33.9,23.5h-0.5v5.1h0.5V23.5z M33.8,23.5c1.1-0.1,1.8-1.5,1.5-2.9c-0.1-0.6-0.2-1.4-0.1-2.2c-1.7,0.4-3.9,3.5-1.9,5.1
		c-0.1-1,0.3-3,1.3-4C33.6,21.7,33.8,22.7,33.8,23.5z M34,24.3c0.3,0.7,1.4,0.8,2.3,0.4c0.4-0.2,0.9-0.4,1.4-0.5
		c-0.5-0.8-2.5-1.9-3.6-0.2c0.6-0.2,2.2-0.3,2.7,0C36.1,23.9,34.5,24.1,34,24.3z M33.1,25.2c0.4-0.7-0.1-1.6-1.1-2
		c-0.4-0.2-0.9-0.4-1.3-0.8c-0.4,0.9,0,3.1,2.1,3c-0.5-0.4-1.5-1.5-1.7-2.2C31.5,23.7,32.6,24.9,33.1,25.2z M23.2,21h-0.5v5.1h0.5
		V21z M23.2,21c1.1-0.1,1.8-1.5,1.5-2.9c-0.1-0.6-0.2-1.4-0.1-2.2c-1.7,0.4-3.9,3.5-1.9,5.1c-0.1-1,0.3-3,1.3-4
		C22.9,19.3,23.1,20.3,23.2,21z M23.4,21.8c0.3,0.7,1.4,0.8,2.3,0.4c0.4-0.2,0.9-0.4,1.4-0.5c-0.5-0.8-2.5-1.9-3.6-0.2
		c0.6-0.2,2.2-0.3,2.7,0C25.5,21.5,23.8,21.6,23.4,21.8z M22.4,22.7c0.4-0.7-0.1-1.6-1.1-2c-0.4-0.2-0.9-0.4-1.3-0.8
		c-0.4,0.9,0,3.1,2.1,3c-0.5-0.4-1.5-1.5-1.7-2.2C20.9,21.3,22,22.5,22.4,22.7z M53.6,21.7h-0.5v5.1h0.5L53.6,21.7L53.6,21.7z
		 M53.6,21.7c1.1-0.1,1.8-1.5,1.5-2.9c-0.1-0.6-0.2-1.4-0.1-2.2c-1.7,0.4-3.9,3.5-1.9,5.1c-0.1-1,0.3-3,1.3-4
		C53.3,19.9,53.5,20.9,53.6,21.7z M53.8,22.5c0.3,0.7,1.4,0.8,2.3,0.4c0.4-0.2,0.9-0.4,1.4-0.5c-0.5-0.8-2.5-1.9-3.6-0.2
		c0.6-0.2,2.2-0.3,2.7,0C55.9,22.1,54.2,22.3,53.8,22.5z M52.8,23.4c0.4-0.7-0.1-1.6-1.1-2c-0.4-0.2-0.9-0.4-1.3-0.8
		c-0.4,0.9,0,3.1,2.1,3C52,23.1,51,22,50.8,21.4C51.3,21.9,52.4,23.1,52.8,23.4z M63.8,18h-0.5v5.1h0.5L63.8,18L63.8,18z M63.8,18
		c1.1-0.1,1.8-1.5,1.5-2.9c-0.1-0.6-0.2-1.4-0.1-2.2c-1.7,0.4-3.9,3.5-1.9,5.1c-0.1-1,0.3-3,1.3-4C63.6,16.2,63.8,17.2,63.8,18z
		 M64,18.8c0.3,0.7,1.4,0.8,2.3,0.4c0.4-0.2,0.9-0.4,1.4-0.5c-0.5-0.8-2.5-1.9-3.6-0.2c0.6-0.2,2.2-0.3,2.7,0
		C66.1,18.4,64.5,18.6,64,18.8z M63,19.7c0.4-0.7-0.1-1.6-1.1-2c-0.4-0.2-0.9-0.4-1.3-0.8c-0.4,0.9,0,3.1,2.1,3
		c-0.5-0.4-1.5-1.5-1.7-2.2C61.5,18.2,62.6,19.4,63,19.7z M74.9,15.1h-0.5v5.1h0.5L74.9,15.1L74.9,15.1z M74.9,15.1
		c1.1-0.1,1.8-1.5,1.5-2.9c-0.1-0.6-0.2-1.4-0.1-2.2c-1.7,0.4-3.9,3.5-1.9,5.1c-0.1-1,0.3-3,1.3-4C74.7,13.3,74.9,14.4,74.9,15.1z
		 M75.1,15.9c0.3,0.7,1.4,0.8,2.3,0.4c0.4-0.2,0.9-0.4,1.4-0.5c-0.5-0.8-2.5-1.9-3.6-0.2c0.6-0.2,2.2-0.3,2.7,0
		C77.2,15.6,75.6,15.7,75.1,15.9z M74.1,16.8c0.4-0.7-0.1-1.6-1.1-2c-0.4-0.2-0.9-0.4-1.3-0.8c-0.4,0.9,0,3.1,2.1,3
		c-0.5-0.4-1.5-1.5-1.7-2.2C72.6,15.3,73.7,16.5,74.1,16.8z"/>
</g>
</svg>
