<?xml version="1.0" encoding="utf-8"?>
<!-- Generator: Adobe Illustrator 21.0.2, SVG Export Plug-In . SVG Version: 6.00 Build 0)  -->
<svg version="1.1" id="Layer_1" xmlns="http://www.w3.org/2000/svg" xmlns:xlink="http://www.w3.org/1999/xlink" x="0px" y="0px"
	 viewBox="0 0 108 108" style="enable-background:new 0 0 108 108;" xml:space="preserve">
<style type="text/css">
	.st0{fill:#375A24;}
	.st1{display:none;}
	.st2{display:inline;}
</style>
<g>
	<path class="st0" d="M65.3,60.1c-0.5-0.5-0.8-0.4-1.3,0.2c-0.6,0.6-0.6,0.9-0.1,1.4l0.5,0.5c0.5,0.5,0.8,0.4,1.3-0.2
		c0.6-0.6,0.6-0.9,0.1-1.4L65.3,60.1z"/>
	<path class="st0" d="M67.7,62.3l-0.5-0.5c-0.5-0.5-0.8-0.4-1.3,0.2c-0.6,0.6-0.6,0.9-0.1,1.4l0.5,0.5c0.5,0.5,0.8,0.4,1.3-0.2
		C68.2,63.1,68.2,62.8,67.7,62.3z"/>
	<path class="st0" d="M69.6,65.4c0.6-0.6,0.6-0.9,0.1-1.4l-0.5-0.5c-0.5-0.5-0.8-0.4-1.3,0.2c-0.6,0.6-0.6,0.9-0.1,1.4l0.5,0.5
		C68.7,66.1,69,66,69.6,65.4z"/>
	<path class="st0" d="M62,58.5c-0.6,0.6-0.6,0.9-0.1,1.4l0.5,0.5c0.5,0.5,0.8,0.4,1.3-0.2c0.6-0.6,0.6-0.9,0.1-1.4l-0.5-0.5
		C62.8,57.9,62.5,57.9,62,58.5z"/>
	<path class="st0" d="M63.2,64.2l0.5,0.5c0.5,0.5,0.8,0.4,1.3-0.2c0.6-0.6,0.6-0.9,0.1-1.4l-0.5-0.5c-0.5-0.5-0.8-0.4-1.3,0.2
		C62.7,63.4,62.7,63.7,63.2,64.2z"/>
	<path class="st0" d="M65.6,66.4c0.5,0.5,0.8,0.4,1.3-0.2c0.6-0.6,0.6-0.9,0.1-1.4l-0.5-0.5c-0.5-0.5-0.8-0.4-1.3,0.2
		c-0.6,0.6-0.6,0.9-0.1,1.4L65.6,66.4z"/>
	<path class="st0" d="M68.3,56.7c-0.5-0.5-0.8-0.4-1.3,0.2c-0.6,0.6-0.6,0.9-0.1,1.4l0.5,0.5c0.5,0.5,0.8,0.4,1.3-0.2
		c0.6-0.6,0.6-0.9,0.1-1.4L68.3,56.7z"/>
	<path class="st0" d="M70.8,58.9l-0.5-0.5c-0.5-0.5-0.8-0.4-1.3,0.2c-0.6,0.6-0.6,0.9-0.1,1.4l0.5,0.5c0.5,0.5,0.8,0.4,1.3-0.2
		C71.3,59.6,71.3,59.4,70.8,58.9z"/>
	<path class="st0" d="M71.9,62.2c0.3-0.5,0.6-1,0.9-1.5c0-0.1-0.1-0.2-0.2-0.2l-0.4-0.4c-0.4-0.4-0.7-0.3-1.3,0.3
		c-0.6,0.6-0.6,0.9-0.2,1.3l0.4,0.4C71.4,62.3,71.6,62.4,71.9,62.2L71.9,62.2z"/>
	<path class="st0" d="M64.9,56c-0.1,0.3,0,0.4,0.3,0.7l0.4,0.4c0.4,0.4,0.7,0.3,1.2-0.3c0.6-0.6,0.6-0.9,0.2-1.3l-0.4-0.4
		c-0.1-0.1-0.2-0.1-0.3-0.2C65.8,55.2,65.4,55.6,64.9,56L64.9,56z"/>
	<path class="st0" d="M65.7,57.5C65.2,57,65,57,64.4,57.6c-0.6,0.6-0.6,0.9-0.1,1.4l0.5,0.5c0.5,0.5,0.8,0.4,1.3-0.2
		c0.6-0.6,0.6-0.9,0.1-1.4L65.7,57.5z"/>
	<path class="st0" d="M66.8,61.2c0.5,0.5,0.8,0.4,1.3-0.2c0.6-0.6,0.6-0.9,0.1-1.4l-0.5-0.5c-0.5-0.5-0.8-0.4-1.3,0.2
		c-0.6,0.6-0.6,0.9-0.1,1.4L66.8,61.2z"/>
	<path class="st0" d="M68.7,63c0.5,0.5,0.8,0.4,1.3-0.2c0.6-0.6,0.6-0.9,0.1-1.4l-0.5-0.5c-0.5-0.5-0.8-0.4-1.3,0.2
		c-0.6,0.6-0.6,0.9-0.1,1.4L68.7,63z"/>
	<path class="st0" d="M70.5,64.3c0.4-0.5,0.7-1,1.1-1.6c0,0,0,0-0.1-0.1l-0.3-0.2c-0.3-0.2-0.5-0.1-1,0.5c-0.6,0.6-0.6,0.8-0.4,1.1
		l0.3,0.2C70.2,64.3,70.3,64.3,70.5,64.3z"/>
	<path class="st0" d="M64.5,56.3C64.5,56.3,64.5,56.3,64.5,56.3c-0.5,0.4-1,0.8-1.5,1.2c-0.1,0.1,0,0.2,0.1,0.3l0.2,0.2
		c0.2,0.2,0.4,0.1,1-0.5c0.6-0.6,0.6-0.8,0.4-1L64.5,56.3z"/>
	<path class="st0" d="M70,54.8l0.5,0.5c0.5,0.5,0.8,0.4,1.3-0.2c0.6-0.6,0.6-0.9,0.1-1.4l-0.5-0.5c-0.5-0.5-0.8-0.4-1.3,0.2
		C69.5,54.1,69.5,54.4,70,54.8z"/>
	<path class="st0" d="M72.5,57.1c0.5,0.5,0.8,0.4,1.3-0.2c0.6-0.6,0.6-0.9,0.1-1.4L73.3,55c-0.5-0.5-0.8-0.4-1.3,0.2
		c-0.6,0.6-0.6,0.9-0.1,1.4L72.5,57.1z"/>
	<path class="st0" d="M74,58.2c0.3-0.6,0.5-1.3,0.7-1.9c-0.2,0-0.4,0.1-0.8,0.6c-0.6,0.6-0.6,0.8-0.4,1l0.2,0.2
		C73.8,58.3,73.9,58.3,74,58.2z"/>
	<path class="st0" d="M69,53.9c0.2,0.2,0.4,0.1,1-0.5c0.4-0.5,0.6-0.7,0.5-0.9c-0.6,0.2-1.2,0.6-1.8,0.9c0,0.1,0,0.2,0.1,0.3
		L69,53.9z"/>
	<path class="st0" d="M67.9,56.1c0.5,0.5,0.8,0.4,1.3-0.2c0.6-0.6,0.6-0.9,0.1-1.4L68.8,54c-0.3-0.3-0.5-0.4-0.8-0.3
		c-0.1,0-0.2,0.1-0.2,0.2c-0.1,0.1-0.2,0.2-0.3,0.3c-0.6,0.6-0.6,0.9-0.1,1.4L67.9,56.1z"/>
	<path class="st0" d="M70.8,55.8c-0.5-0.5-0.8-0.4-1.3,0.2c-0.6,0.6-0.6,0.9-0.1,1.4l0.5,0.5c0.5,0.5,0.8,0.4,1.3-0.2
		c0.6-0.6,0.6-0.9,0.1-1.4L70.8,55.8z"/>
	<path class="st0" d="M73.2,58l-0.5-0.5c-0.5-0.5-0.8-0.4-1.3,0.2c-0.6,0.6-0.6,0.9-0.1,1.4l0.5,0.5c0.5,0.5,0.8,0.4,1.3-0.2
		C73.7,58.7,73.7,58.5,73.2,58z"/>
	<path class="st0" d="M71.3,52.9c0.3,0.3,0.5,0.2,1.1-0.5c0.3-0.3,0.4-0.5,0.5-0.7c-0.6,0.1-1.2,0.2-2,0.5c0,0.1,0,0.2,0.2,0.4
		L71.3,52.9z"/>
	<path class="st0" d="M72.4,53.9l0.5,0.5c0.5,0.5,0.8,0.4,1.3-0.2c0.6-0.6,0.6-0.9,0.1-1.4l-0.5-0.5c-0.5-0.5-0.8-0.4-1.3,0.2
		C71.9,53.2,71.9,53.5,72.4,53.9z"/>
	<path class="st0" d="M75.2,53.8c-0.2,0-0.4,0.2-0.8,0.6c-0.6,0.6-0.6,0.8-0.3,1.1l0.3,0.3c0.2,0.2,0.3,0.2,0.6,0
		C75.1,55,75.2,54.3,75.2,53.8z"/>
	<path class="st0" d="M62.6,66.7l0.5,0.5c0.5,0.5,0.8,0.4,1.3-0.2c0.6-0.6,0.6-0.9,0.1-1.4L64,65.1c-0.5-0.5-0.8-0.4-1.3,0.2
		C62.1,65.9,62.1,66.2,62.6,66.7z"/>
	<path class="st0" d="M67.2,67.8c0.1,0.1,0.3,0.2,0.4,0.2l0.1-0.1c0.4-0.4,0.7-0.8,1.1-1.3c0-0.1-0.1-0.2-0.2-0.3l-0.3-0.3
		c-0.3-0.3-0.6-0.2-1.1,0.4c-0.6,0.6-0.6,0.8-0.3,1.2L67.2,67.8z"/>
	<path class="st0" d="M66.4,68.7c0.6-0.6,0.6-0.9,0.1-1.4l-0.5-0.5c-0.5-0.5-0.8-0.4-1.3,0.2C64,67.7,64,68,64.5,68.4l0.5,0.5
		C65.5,69.4,65.8,69.3,66.4,68.7z"/>
	<path class="st0" d="M74.6,58.6c-0.7,1.5-1.5,3-2.5,4.5c3.1-2.2,5.5-3,7.2-3.9C80.2,58.7,77.9,58.3,74.6,58.6z"/>
	<path class="st0" d="M60.2,67.6l0.4,0.4c0.5,0.5,0.8,0.4,1.3-0.2c0.6-0.6,0.6-0.9,0.1-1.4L61.5,66c-0.4-0.4-0.7-0.4-1-0.1
		C60.4,66.4,60.3,67,60.2,67.6z"/>
	<path class="st0" d="M60.7,64.9l0.5,0.4c0.5,0.5,0.8,0.4,1.3-0.2c0.6-0.6,0.6-0.9,0.1-1.4L62,63.4c-0.5-0.4-0.7-0.4-1.2,0
		C60.8,63.8,60.7,64.4,60.7,64.9z"/>
	<path class="st0" d="M61.4,59.7c-0.1,0.4-0.1,0.8-0.2,1.3c0,0,0,0,0,0c0.6-0.6,0.6-0.8,0.3-1.1L61.4,59.7z"/>
	<path class="st0" d="M61.1,61.4c0,0,0,0.3-0.1,0.8c0.1,0.1,0.1,0.2,0.2,0.2l0.5,0.5c0.5,0.5,0.8,0.4,1.3-0.2
		c0.6-0.6,0.6-0.9,0.1-1.4l-0.5-0.5c-0.5-0.5-0.8-0.4-1.3,0.2c-0.1,0.1-0.1,0.1-0.2,0.2C61.1,61.3,61.1,61.3,61.1,61.4z"/>
	<path class="st0" d="M59.6,70.2l0.4,0.3c0,0,0,0,0.1,0.1c0.5-0.2,1-0.3,1.4-0.4c0.4-0.5,0.4-0.8-0.1-1.2l-0.5-0.5
		c-0.3-0.3-0.6-0.4-0.8-0.3C59.9,68.9,59.8,69.6,59.6,70.2z"/>
	<path class="st0" d="M62.6,69.8c0.1,0.1,0.1,0.1,0.2,0.1c0.2,0,0.4-0.1,0.5-0.1c0.1,0,0.3,0,0.4,0c0.1-0.1,0.1-0.1,0.2-0.2
		c0.6-0.6,0.6-0.9,0.1-1.4l-0.5-0.5c-0.5-0.5-0.8-0.4-1.3,0.2c-0.6,0.6-0.6,0.9-0.1,1.4L62.6,69.8z"/>
	<path class="st0" d="M65.2,69.3c-0.3-0.3-0.6-0.2-1.1,0.4c0,0,0,0-0.1,0.1c0.5-0.1,1-0.1,1.4-0.2L65.2,69.3z"/>
	<g>
		<path class="st0" d="M45.5,19.6c1.1,0,1.9,0.7,2.4,1.2c0.5-0.5,1.3-1.2,2.4-1.2c0.1,0,0.3,0,0.4,0V2c0-3.5-1.3,0-2.8,0
			s-2.8-3.5-2.8,0v17.7C45.3,19.6,45.4,19.6,45.5,19.6z"/>
	</g>
	<g>
		<path class="st0" d="M45.7,40.7c1.1,0,1.9,0.7,2.4,1.2c0.5-0.5,1.3-1.2,2.4-1.2c0.1,0,0.2,0,0.3,0V23.6c0-3.5-1.3,0-2.8,0
			s-2.8-3.5-2.8,0v17.1C45.3,40.7,45.5,40.7,45.7,40.7z"/>
	</g>
	<g>
		<path class="st0" d="M45.7,62.3c1.1,0,1.9,0.7,2.4,1.2c0.5-0.5,1.3-1.2,2.4-1.2c0.1,0,0.2,0,0.3,0V44.8c0-3.5-1.3,0-2.8,0
			s-2.8-3.5-2.8,0v17.5C45.3,62.3,45.5,62.3,45.7,62.3z"/>
	</g>
	<g>
		<path class="st0" d="M45.8,84.5c1.1,0,1.9,0.7,2.4,1.2c0.5-0.5,1.3-1.2,2.4-1.2c0.1,0,0.1,0,0.2,0v-18c0-3.5-1.3,0-2.8,0
			s-2.8-3.5-2.8,0v18.1C45.4,84.5,45.6,84.5,45.8,84.5z"/>
	</g>
	<g>
		<path class="st0" d="M45.7,106.4c1.1,0,1.9,0.7,2.4,1.2c0.5-0.5,1.3-1.2,2.4-1.2c0.1,0,0.3,0,0.4,0V88.7c0-3.5-1.3,0-2.8,0
			c-1.6,0-2.8-3.5-2.8,0v17.7C45.4,106.4,45.5,106.4,45.7,106.4z"/>
	</g>
	<g>
		<path class="st0" d="M42.8,62.2V45.1c0-0.8,0.1-1.4,0.2-1.9c0-0.1,0.1-0.2,0.1-0.3c-3.3-3.8-6.4-6.8-7.5-7.8
			c-1-0.9-1.9-1.9-2.7-2.8c-0.1-0.2-0.3-0.3-0.4-0.5c-0.1-0.4-0.2-0.8-0.3-1.2c-0.7-3-0.9-3.6-0.9-3.7c-3.3-12.4-16.6,0.2-12.9-0.4
			c6.9-1.1,10.2,1.2,13,4.1c0,0,0,0,0,0c0.1,0.1,1.1,1.3,1.2,1.5c0.1,0.3,0.3,0.6,0.3,1c0.1,0.4,4.8,19.8,4.8,19.8
			c1.7,6.6,3.4,9,5.1,9.8L42.8,62.2L42.8,62.2z"/>
	</g>
	<g>
		<path class="st0" d="M64.5,9.6c0,0.1-0.2,0.7-0.9,3.7c-0.1,0.4-0.2,0.8-0.3,1.2c-0.1,0.2-0.3,0.3-0.4,0.5c-0.9,1-1.8,1.9-2.7,2.8
			c-1,0.9-3.8,3.6-6.8,7v15.9l0,2.5c0.1,0.4,0.1,0.8,0.1,1.4V45c1.6-1,3-3.6,4.6-9.5c0,0,4.7-19.4,4.8-19.8c0.1-0.3,0.2-0.7,0.3-1
			c0.1-0.2,1.1-1.5,1.2-1.5c0,0,0,0,0,0c2.8-2.9,6.1-5.2,13-4.1C81.1,9.8,67.8-2.8,64.5,9.6z"/>
	</g>
	<g>
		<path class="st0" d="M42.8,88.9c0-0.8,0-2,0-2V84V68.1c-0.9-1.2-1.6-2.1-2-2.6c-0.9-1-1.6-2.1-2.3-3.2c-0.1-0.2-0.2-0.3-0.4-0.5
			c0-0.4-0.1-0.9-0.1-1.2c-0.3-3-0.4-3.6-0.4-3.7c-1.5-12.8-16.5-2.2-12.8-2.2c7-0.1,10,2.6,12.3,5.9c0,0,0,0,0,0
			c0.1,0.1,0.9,1.4,1,1.7c0.1,0.3,0.2,0.7,0.2,1c0,0.4,2,20.2,2,20.2c0.6,4.9,1.4,7.6,2.4,9.1C42.8,92.5,42.8,88.9,42.8,88.9z"/>
	</g>
	<g>
		<path class="st0" d="M77.6,66.5c-0.1,0.1-0.4,0.6-2.3,3c-0.2,0.3-0.5,0.6-0.8,1c-0.2,0.1-0.4,0.2-0.6,0.3
			c-1.2,0.5-2.4,1.1-3.6,1.5c-2.2,0.7-10.5,4-16.9,7.9v3.7c0,0,0.1,4,0.1,4.9v5.7c1.8-0.4,4.2-2.2,7.9-6.8c0,0,12-15.9,12.3-16.2
			c0.2-0.3,0.5-0.5,0.7-0.7c0.2-0.2,1.6-0.9,1.7-0.9c0,0,0,0,0,0c3.7-1.5,7.7-2.3,13.6,1.4C92.7,73.3,85.5,56.4,77.6,66.5z"/>
	</g>
	<g>
		<path class="st0" d="M60.3,58.9c-0.1,0.1-4,4.3-6.9,7.4c0,0.1,0,0.1,0,0.2v10.9c1.3-0.8,2.7-1.5,4.1-2.2
			c1.8-5.2,2.7-11.9,2.9-13.7c0.1-1,0.3-2,0.5-2.9l0.1-0.2c0.8-0.8,1.7-1.6,2.7-2.4l0.7-1.8c3.5-6.1-8.7-9.6-6.8-7.6
			c3.9,4.2,4.1,7.3,3.6,10.3c0,0,0,0,0,0c0,0.1-0.3,1.2-0.4,1.4C60.6,58.5,60.5,58.7,60.3,58.9z"/>
	</g>
	<g>
		<path class="st0" d="M76.8,72.2c-0.3,0.1-0.7,0.4-1,0.5c0.3,0.2,0.6,0.4,1,0.7C77.6,74,77.5,73.3,76.8,72.2L76.8,72.2z"/>
		<path class="st0" d="M64.5,71.9c0.6-0.7,1-1.1,1-1.2c0.1-0.1,0.3-0.3,0.4-0.4C66,70.3,67,70,67,70c0,0,0,0,0,0
			c0.8-0.1,1.5-0.2,2.4-0.1c0,0,0.1,0,0.1,0c1.1-0.4,2.1-0.8,3.2-1.3l0.2-0.1l0.1-0.1l0.3-0.4l0.1-0.1c-1.7-1.3-3.8-1.8-5.5,0.2
			c0,0-0.3,0.3-1.4,1.6c-0.1,0.2-0.3,0.3-0.5,0.5c-0.1,0-0.3,0.1-0.4,0.1c-0.8,0.1-1.6,0.3-2.5,0.3c-0.7,0.1-2.2,0.4-3.9,1
			c-0.3,1-0.6,2-0.9,3C60.6,73.6,62.7,72.6,64.5,71.9z"/>
	</g>
</g>
<g class="st1">
	<path class="st2" d="M49.8,17.3c0,12.4,2.4,22.5,5.4,22.5s3.6-9.3,3.6-21.8s3.8-17.3,5.3-20.8C65.3-5.5,49.8,4.8,49.8,17.3z"/>
	<polygon class="st2" points="43.6,4.7 45.6,8.9 45.7,14.1 43.1,9.9 42.9,7.6 	"/>
	<polygon class="st2" points="60.8,12.8 58.8,16 58.8,20 61.3,16.8 61.6,15 	"/>
	<path class="st2" d="M60.1,14.1v16.6c0,7.6-3.4,8.3-7.5,8.5c-6.6,0.3-7.5-4.5-7.5-8.5V14.1c0-8.5,3.2-19.4,7.5-19.4
		S60.1,5.6,60.1,14.1z"/>
	<path class="st2" d="M25.3,4.4c0,2-0.6,1.8-1.4,1.8l0,0c-0.8,0-1.4,0.2-1.4-1.8V-6.4c0-2,0.6,0,1.4,0l0,0c0.8,0,1.4-2,1.4,0V4.4z"
		/>
	<path class="st2" d="M25.3,16.6c0,2-0.6,1.8-1.4,1.8l0,0c-0.8,0-1.4,0.2-1.4-1.8V5.9c0-2,0.6,0,1.4,0l0,0c0.8,0,1.4-2,1.4,0V16.6z"
		/>
	<path class="st2" d="M25.3,28.6c0,2-0.6,1.8-1.4,1.8l0,0c-0.8,0-1.4,0.2-1.4-1.8V17.8c0-2,0.6,0,1.4,0l0,0c0.8,0,1.4-2,1.4,0V28.6z
		"/>
	<path class="st2" d="M25.3,40.8c0,2-0.6,1.8-1.4,1.8l0,0c-0.8,0-1.4,0.2-1.4-1.8V30c0-2,0.6,0,1.4,0l0,0c0.8,0,1.4-2,1.4,0V40.8z"
		/>
	<path class="st2" d="M25.4,53.3c0,2-0.6,1.8-1.4,1.8l0,0c-0.8,0-1.4,0.2-1.4-1.8V42.6c0-2,0.6,0,1.4,0l0,0c0.8,0,1.4-2,1.4,0V53.3z
		"/>
	<path class="st2" d="M25.4,65.5c0,2-0.6,1.8-1.4,1.8l0,0c-0.8,0-1.4,0.2-1.4-1.8V54.8c0-2,0.6,0,1.4,0l0,0c0.8,0,1.4-2,1.4,0V65.5z
		"/>
	<path class="st2" d="M25.4,77.5c0,2-0.6,1.8-1.4,1.8l0,0c-0.8,0-1.4,0.2-1.4-1.8V66.7c0-2,0.6,0,1.4,0l0,0c0.8,0,1.4-2,1.4,0V77.5z
		"/>
	<path class="st2" d="M25.4,89.7c0,2-0.6,1.8-1.4,1.8l0,0c-0.8,0-1.4,0.2-1.4-1.8V79c0-2,0.6,0,1.4,0l0,0c0.8,0,1.4-2,1.4,0V89.7z"
		/>
	<path class="st2" d="M75.1,11.8c-8.1,0.5-11.2,2.5-13.5,4.9c0,0,0,0,0,0c-0.1,0.1-0.8,1-0.9,1.2c-0.1,0.2-0.1,0.4-0.1,0.7
		c0,0.3,0.5,13.5,0.5,13.5c0,7.6-3.1,8-7.3,8c-9,0,1.2-17.1,4.3-19.8c0.8-0.7,1.5-1.5,2.3-2.3c0.1-0.1,0.2-0.3,0.3-0.4
		c0-0.3,0-0.6,0-0.8c0-2-0.1-2.4-0.1-2.5C60.6,5.7,79.4,11.5,75.1,11.8z"/>
	<path class="st2" d="M60.7,17.6c-0.1,0.1-0.2,0.3-0.3,0.4v-1.2h0.3C60.7,17,60.7,17.3,60.7,17.6z"/>
	<path class="st2" d="M29.3,3.5c8.1,0.6,11.2,3.2,13.5,6.2c0,0,0,0,0,0c0.1,0.1,0.8,1.3,0.9,1.5c0.1,0.3,0.1,0.6,0.1,0.9
		c0,0.4-0.4,17.5-0.4,17.5c0.1,9.8,3.2,9.8,7.3,10.3c18.2,2.3-1.4-22.2-4.5-25.6c-0.9-1-1.6-2-2.3-2.9c-0.1-0.2-0.2-0.3-0.3-0.5
		c0-0.4,0-0.8,0-1.1c0-2.6,0-3.1,0-3.2C43.8-4.4,25,3.2,29.3,3.5z"/>
	<path class="st2" d="M43.8,10.9c0.1,0.2,0.2,0.3,0.3,0.5l0-1.6l-0.3,0C43.8,10.2,43.8,10.6,43.8,10.9z"/>
	<path class="st2" d="M52.5,10.5c0,1-0.2,1.3-1.2,1.3h-1c-1,0-1.2-0.3-1.2-1.3l0,0c0-1,0.2-1.3,1.2-1.3h1
		C52.2,9.3,52.5,9.5,52.5,10.5L52.5,10.5z"/>
	<path class="st2" d="M56.2,10.5c0,1-0.2,1.3-1.2,1.3h-1c-1,0-1.2-0.3-1.2-1.3l0,0c0-1,0.2-1.3,1.2-1.3h1
		C55.9,9.3,56.2,9.5,56.2,10.5L56.2,10.5z"/>
	<path class="st2" d="M59.8,10.5c0,1-0.2,1.3-1.2,1.3h-1c-1,0-1.2-0.3-1.2-1.3l0,0c0-1,0.2-1.3,1.2-1.3h1
		C59.6,9.3,59.8,9.5,59.8,10.5L59.8,10.5z"/>
	<path class="st2" d="M48.8,10.5c0,1-0.2,1.3-1.2,1.3h-1c-1,0-1.2-0.3-1.2-1.3l0,0c0-1,0.2-1.3,1.2-1.3h1
		C48.5,9.3,48.8,9.5,48.8,10.5L48.8,10.5z"/>
	<path class="st2" d="M50.5,13.3c0,1-0.2,1.3-1.2,1.3h-1c-1,0-1.2-0.3-1.2-1.3l0,0c0-1,0.2-1.3,1.2-1.3h1
		C50.2,12,50.5,12.3,50.5,13.3L50.5,13.3z"/>
	<path class="st2" d="M54.2,13.3c0,1-0.2,1.3-1.2,1.3h-1c-1,0-1.2-0.3-1.2-1.3l0,0c0-1,0.2-1.3,1.2-1.3h1
		C53.9,12,54.2,12.3,54.2,13.3L54.2,13.3z"/>
	<path class="st2" d="M57.8,13.3c0,1-0.2,1.3-1.2,1.3h-1c-1,0-1.2-0.3-1.2-1.3l0,0c0-1,0.2-1.3,1.2-1.3h1
		C57.6,12,57.8,12.3,57.8,13.3L57.8,13.3z"/>
	<path class="st2" d="M60.3,13.3c0,1-0.2,1.3-0.8,1.3h-0.6c-0.6,0-0.8-0.3-0.8-1.3l0,0c0-1,0.2-1.3,0.8-1.3h0.6
		C60.2,12,60.3,12.3,60.3,13.3L60.3,13.3z"/>
	<path class="st2" d="M46.8,13.3c0,1-0.1,1.3-0.7,1.3h-0.6c-0.6,0-0.7-0.3-0.7-1.3l0,0c0-1,0.1-1.3,0.7-1.3h0.6
		C46.6,12,46.8,12.3,46.8,13.3L46.8,13.3z"/>
	<path class="st2" d="M52.5,5c0,1-0.2,1.3-1.2,1.3h-1C49.3,6.3,49,6,49,5l0,0c0-1,0.2-1.3,1.2-1.3h1C52.2,3.8,52.5,4,52.5,5L52.5,5z
		"/>
	<path class="st2" d="M56.2,5c0,1-0.2,1.3-1.2,1.3h-1c-1,0-1.2-0.3-1.2-1.3l0,0c0-1,0.2-1.3,1.2-1.3h1C55.9,3.8,56.2,4,56.2,5
		L56.2,5z"/>
	<path class="st2" d="M59.3,5c0,1-0.2,1.3-1,1.3h-0.8c-0.8,0-1-0.3-1-1.3l0,0c0-1,0.2-1.3,1-1.3h0.8C59.1,3.8,59.3,4,59.3,5L59.3,5z
		"/>
	<path class="st2" d="M48.8,5c0,1-0.2,1.3-1,1.3h-0.8c-0.8,0-1-0.3-1-1.3l0,0c0-1,0.2-1.3,1-1.3h0.8C48.6,3.8,48.8,4,48.8,5L48.8,5z
		"/>
	<path class="st2" d="M50.5,7.8c0,1-0.2,1.3-1.2,1.3h-1c-1,0-1.2-0.3-1.2-1.3l0,0c0-1,0.2-1.3,1.2-1.3h1C50.2,6.5,50.5,6.8,50.5,7.8
		L50.5,7.8z"/>
	<path class="st2" d="M54.2,7.8c0,1-0.2,1.3-1.2,1.3h-1c-1,0-1.2-0.3-1.2-1.3l0,0c0-1,0.2-1.3,1.2-1.3h1C53.9,6.5,54.2,6.8,54.2,7.8
		L54.2,7.8z"/>
	<path class="st2" d="M57.8,7.8c0,1-0.2,1.3-1.2,1.3h-1c-1,0-1.2-0.3-1.2-1.3l0,0c0-1,0.2-1.3,1.2-1.3h1C57.6,6.5,57.8,6.8,57.8,7.8
		L57.8,7.8z"/>
	<path class="st2" d="M59.8,7.8c0,1-0.1,1.3-0.6,1.3h-0.5c-0.5,0-0.6-0.3-0.6-1.3l0,0c0-1,0.1-1.3,0.6-1.3h0.5
		C59.7,6.5,59.8,6.8,59.8,7.8L59.8,7.8z"/>
	<path class="st2" d="M46.8,7.8c0,1-0.1,1.3-0.5,1.3h-0.4c-0.4,0-0.5-0.3-0.5-1.3l0,0c0-1,0.1-1.3,0.5-1.3h0.4
		C46.7,6.5,46.8,6.8,46.8,7.8L46.8,7.8z"/>
	<path class="st2" d="M52.5-0.5c0,1-0.2,1.3-1.2,1.3h-1c-1,0-1.2-0.3-1.2-1.3l0,0c0-1,0.2-1.3,1.2-1.3h1C52.2-1.7,52.5-1.5,52.5-0.5
		L52.5-0.5z"/>
	<path class="st2" d="M56.2-0.5c0,1-0.2,1.3-1.2,1.3h-1c-1,0-1.2-0.3-1.2-1.3l0,0c0-1,0.2-1.3,1.2-1.3h1C55.9-1.7,56.2-1.5,56.2-0.5
		L56.2-0.5z"/>
	<path class="st2" d="M57.8-0.5c0,1-0.1,1.3-0.5,1.3h-0.4c-0.4,0-0.5-0.3-0.5-1.3l0,0c0-1,0.1-1.3,0.5-1.3h0.4
		C57.7-1.7,57.8-1.5,57.8-0.5L57.8-0.5z"/>
	<path class="st2" d="M48.8-0.5c0,1-0.1,1.3-0.5,1.3h-0.4c-0.4,0-0.5-0.3-0.5-1.3l0,0c0-1,0.1-1.3,0.5-1.3h0.4
		C48.7-1.7,48.8-1.5,48.8-0.5L48.8-0.5z"/>
	<path class="st2" d="M50.5,2.3c0,1-0.2,1.3-1.2,1.3h-1c-1,0-1.2-0.3-1.2-1.3l0,0c0-1,0.2-1.3,1.2-1.3h1C50.2,1,50.5,1.3,50.5,2.3
		L50.5,2.3z"/>
	<path class="st2" d="M54.2,2.3c0,1-0.2,1.3-1.2,1.3h-1c-1,0-1.2-0.3-1.2-1.3l0,0c0-1,0.2-1.3,1.2-1.3h1C53.9,1,54.2,1.3,54.2,2.3
		L54.2,2.3z"/>
	<path class="st2" d="M57.8,2.3c0,1-0.2,1.3-1.2,1.3h-1c-1,0-1.2-0.3-1.2-1.3l0,0c0-1,0.2-1.3,1.2-1.3h1C57.6,1,57.8,1.3,57.8,2.3
		L57.8,2.3z"/>
	<path class="st2" d="M50.5-3.2c0,1-0.1,1.3-0.7,1.3h-0.5c-0.5,0-0.7-0.3-0.7-1.3l0,0c0-1,0.1-1.3,0.7-1.3h0.5
		C50.3-4.5,50.5-4.2,50.5-3.2L50.5-3.2z"/>
	<path class="st2" d="M54.2-3.2c0,1-0.2,1.3-1.2,1.3h-1c-1,0-1.2-0.3-1.2-1.3l0,0c0-1,0.2-1.3,1.2-1.3h1C53.9-4.5,54.2-4.2,54.2-3.2
		L54.2-3.2z"/>
	<path class="st2" d="M56.3-3.2c0,1-0.1,1.3-0.7,1.3h-0.6c-0.6,0-0.7-0.3-0.7-1.3l0,0c0-1,0.1-1.3,0.7-1.3h0.6
		C56.2-4.5,56.3-4.2,56.3-3.2L56.3-3.2z"/>
	<path class="st2" d="M52.2,16c0,1-0.2,1.3-1.2,1.3h-1c-1,0-1.2-0.3-1.2-1.3l0,0c0-1,0.2-1.3,1.2-1.3h1C52,14.8,52.2,15,52.2,16
		L52.2,16z"/>
	<path class="st2" d="M55.9,16c0,1-0.2,1.3-1.2,1.3h-1c-1,0-1.2-0.3-1.2-1.3l0,0c0-1,0.2-1.3,1.2-1.3h1C55.7,14.8,55.9,15,55.9,16
		L55.9,16z"/>
	<path class="st2" d="M59.6,16c0,1-0.2,1.3-1.2,1.3h-1c-1,0-1.2-0.3-1.2-1.3l0,0c0-1,0.2-1.3,1.2-1.3h1C59.3,14.8,59.6,15,59.6,16
		L59.6,16z"/>
	<path class="st2" d="M48.5,16c0,1-0.2,1.3-1.2,1.3h-1c-1,0-1.2-0.3-1.2-1.3l0,0c0-1,0.2-1.3,1.2-1.3h1C48.3,14.8,48.5,15,48.5,16
		L48.5,16z"/>
	<path class="st2" d="M50.5,18.8c0,1-0.2,1.3-1.2,1.3h-1c-1,0-1.2-0.3-1.2-1.3l0,0c0-1,0.2-1.3,1.2-1.3h1
		C50.2,17.5,50.5,17.8,50.5,18.8L50.5,18.8z"/>
	<path class="st2" d="M54.2,18.8c0,1-0.2,1.3-1.2,1.3h-1c-1,0-1.2-0.3-1.2-1.3l0,0c0-1,0.2-1.3,1.2-1.3h1
		C53.9,17.5,54.2,17.8,54.2,18.8L54.2,18.8z"/>
	<path class="st2" d="M57.8,18.8c0,1-0.2,1.3-1.2,1.3h-1c-1,0-1.2-0.3-1.2-1.3l0,0c0-1,0.2-1.3,1.2-1.3h1
		C57.6,17.5,57.8,17.8,57.8,18.8L57.8,18.8z"/>
	<path class="st2" d="M60.3,18.8c0,1-0.2,1.3-0.8,1.3h-0.6c-0.6,0-0.8-0.3-0.8-1.3l0,0c0-1,0.2-1.3,0.8-1.3h0.6
		C60.2,17.5,60.3,17.8,60.3,18.8L60.3,18.8z"/>
	<path class="st2" d="M52.2,21.5c0,1-0.2,1.3-1.2,1.3h-1c-1,0-1.2-0.3-1.2-1.3l0,0c0-1,0.2-1.3,1.2-1.3h1
		C52,20.3,52.2,20.5,52.2,21.5L52.2,21.5z"/>
	<path class="st2" d="M55.9,21.5c0,1-0.2,1.3-1.2,1.3h-1c-1,0-1.2-0.3-1.2-1.3l0,0c0-1,0.2-1.3,1.2-1.3h1
		C55.7,20.3,55.9,20.5,55.9,21.5L55.9,21.5z"/>
	<path class="st2" d="M59.6,21.5c0,1-0.2,1.3-1.2,1.3h-1c-1,0-1.2-0.3-1.2-1.3l0,0c0-1,0.2-1.3,1.2-1.3h1
		C59.3,20.3,59.6,20.5,59.6,21.5L59.6,21.5z"/>
	<path class="st2" d="M53.7,24.3c0,1-0.2,1.3-1.2,1.3h-1c-1,0-1.2-0.3-1.2-1.3l0,0c0-1,0.2-1.3,1.2-1.3h1
		C53.4,23,53.7,23.3,53.7,24.3L53.7,24.3z"/>
	<path class="st2" d="M57.3,24.3c0,1-0.2,1.3-1.2,1.3h-1c-1,0-1.2-0.3-1.2-1.3l0,0c0-1,0.2-1.3,1.2-1.3h1
		C57.1,23,57.3,23.3,57.3,24.3L57.3,24.3z"/>
	<path class="st2" d="M66.6,56.4c0,1-0.1,1.3-0.5,1.3h-0.4c-0.2,0-0.3-0.1-0.4-0.2c0.1-0.8,0.2-1.5,0.4-2.3c0,0,0,0,0,0h0.4
		C66.5,55.2,66.6,55.4,66.6,56.4z"/>
	<path class="st2" d="M65.1,59.2c0-1,0.2-1.3,1.2-1.3h1c1,0,1.2,0.3,1.2,1.3s-0.3,1.3-1.2,1.3h-1C65.4,60.4,65.1,60.2,65.1,59.2z"/>
	<path class="st2" d="M68.6,53.7c0,1-0.2,1.3-1.1,1.3h-0.8c-0.5,0-0.8-0.1-0.9-0.4v0c0.1-0.7,0.3-1.4,0.5-2c0.1,0,0.3,0,0.5,0h0.8
		C68.4,52.4,68.6,52.7,68.6,53.7z"/>
	<path class="st2" d="M68.6,48.2c0,1-0.1,1.3-0.5,1.3h-0.4c-0.2,0-0.3,0-0.4-0.2c0.3-0.8,0.7-1.6,1-2.3
		C68.5,47.1,68.6,47.4,68.6,48.2z"/>
	<path class="st2" d="M68.1,55.2h1c1,0,1.2,0.3,1.2,1.3S70,57.7,69,57.7h-1c-1,0-1.2-0.3-1.2-1.3S67.1,55.2,68.1,55.2z"/>
	<path class="st2" d="M66.8,50.9c0-0.2,0-0.4,0-0.5c0-0.1,0.1-0.2,0.1-0.3c0.2-0.3,0.5-0.4,1.1-0.4h1c1,0,1.2,0.3,1.2,1.3
		S70,52.2,69,52.2h-1C67.1,52.2,66.8,51.9,66.8,50.9z"/>
	<path class="st2" d="M70.3,45.4c0,1-0.1,1.3-0.7,1.3h-0.5c-0.2,0-0.4,0-0.5-0.2c0.5-0.8,1-1.5,1.6-2.1
		C70.2,44.6,70.3,44.9,70.3,45.4z"/>
	<path class="st2" d="M68.8,59.2c0-1,0.3-1.3,1.2-1.3h1c1,0,1.2,0.3,1.2,1.3S72,60.4,71,60.4h-1C69.1,60.4,68.8,60.2,68.8,59.2z"/>
	<path class="st2" d="M70.1,52.4h1c1,0,1.2,0.3,1.2,1.3S72,54.9,71,54.9h-1c-1,0-1.2-0.3-1.2-1.3S69.1,52.4,70.1,52.4z"/>
	<path class="st2" d="M71,49.4h-1c-1,0-1.2-0.3-1.2-1.3s0.3-1.3,1.2-1.3h1c1,0,1.2,0.3,1.2,1.3S72,49.4,71,49.4z"/>
	<path class="st2" d="M74,61.9c0,1-0.3,1.3-1.2,1.3h-1c-1,0-1.2-0.3-1.2-1.3s0.2-1.3,1.2-1.3h1C73.7,60.7,74,60.9,74,61.9z"/>
	<path class="st2" d="M72.7,57.7h-1c-1,0-1.2-0.3-1.2-1.3s0.2-1.3,1.2-1.3h1c1,0,1.2,0.3,1.2,1.3S73.7,57.7,72.7,57.7z"/>
	<path class="st2" d="M70.5,50.9c0-1,0.2-1.3,1.2-1.3h1c1,0,1.2,0.3,1.2,1.3s-0.3,1.3-1.2,1.3h-1C70.8,52.2,70.5,51.9,70.5,50.9z"/>
	<path class="st2" d="M70.5,45.4c0-1,0.2-1.3,1.2-1.3h1c1,0,1.2,0.3,1.2,1.3s-0.3,1.3-1.2,1.3h-1C70.8,46.7,70.5,46.4,70.5,45.4z"/>
	<path class="st2" d="M74.5,65.9h-1c-1,0-1.2-0.3-1.2-1.3s0.2-1.3,1.2-1.3h1c1,0,1.2,0.3,1.2,1.3S75.5,65.9,74.5,65.9z"/>
	<path class="st2" d="M74.7,60.4h-1c-1,0-1.2-0.3-1.2-1.3s0.2-1.3,1.2-1.3h1c1,0,1.2,0.3,1.2,1.3S75.7,60.4,74.7,60.4z"/>
	<path class="st2" d="M76,53.7c0,1-0.3,1.3-1.2,1.3h-1c-1,0-1.2-0.3-1.2-1.3s0.2-1.3,1.2-1.3h1C75.7,52.4,76,52.7,76,53.7z"/>
	<path class="st2" d="M72.5,48.2c0-1,0.2-1.3,1.2-1.3h1c1,0,1.2,0.3,1.2,1.3s-0.3,1.3-1.2,1.3h-1C72.8,49.4,72.5,49.2,72.5,48.2z"/>
	<path class="st2" d="M76.1,46.2c-0.1,0.3-0.3,0.4-0.6,0.4h-0.5c-0.6,0-0.7-0.3-0.7-1.3c0-0.7,0.1-1,0.3-1.1
		C75,44.8,75.6,45.4,76.1,46.2z"/>
	<path class="st2" d="M77.6,61.9c0,1-0.3,1.3-1.2,1.3h-1c-1,0-1.2-0.3-1.2-1.3s0.2-1.3,1.2-1.3h1C77.4,60.7,77.6,60.9,77.6,61.9z"/>
	<path class="st2" d="M76.4,57.7h-1c-1,0-1.2-0.3-1.2-1.3s0.2-1.3,1.2-1.3h1c1,0,1.2,0.3,1.2,1.3S77.4,57.7,76.4,57.7z"/>
	<path class="st2" d="M77.6,50.9c0,1-0.3,1.3-1.2,1.3h-1c-1,0-1.2-0.3-1.2-1.3s0.2-1.3,1.2-1.3h1C77.4,49.7,77.6,49.9,77.6,50.9z"/>
	<path class="st2" d="M77.5,49.2c-0.1,0.2-0.2,0.2-0.4,0.2h-0.4c-0.4,0-0.5-0.3-0.5-1.3c0-0.8,0.1-1.1,0.3-1.2
		C76.9,47.6,77.2,48.4,77.5,49.2z"/>
	<path class="st2" d="M78.2,65.9h-1c-1,0-1.2-0.3-1.2-1.3s0.2-1.3,1.2-1.3h1c1,0,1.2,0.3,1.2,1.3S79.1,65.9,78.2,65.9z"/>
	<path class="st2" d="M78.4,60.4h-1c-1,0-1.2-0.3-1.2-1.3s0.2-1.3,1.2-1.3h1c1,0,1.2,0.3,1.2,1.3S79.4,60.4,78.4,60.4z"/>
	<path class="st2" d="M79,54.5L79,54.5c-0.1,0.3-0.4,0.4-0.9,0.4h-0.8c-0.8,0-1.1-0.3-1.1-1.3s0.2-1.3,1.1-1.3h0.8
		c0.2,0,0.3,0,0.5,0C78.7,53.1,78.9,53.8,79,54.5z"/>
	<path class="st2" d="M79.5,57.4c-0.1,0.2-0.3,0.3-0.5,0.3h-0.5c-0.5,0-0.6-0.3-0.6-1.3s0.1-1.3,0.6-1.3H79c0,0,0.1,0,0.1,0
		C79.3,55.9,79.4,56.7,79.5,57.4z"/>
	<path class="st2" d="M79.9,62.8V63c-0.1,0.1-0.3,0.2-0.6,0.2h-0.6c-0.6,0-0.8-0.3-0.8-1.3s0.2-1.3,0.8-1.3h0.6c0.2,0,0.4,0,0.5,0.1
		C79.9,61.5,79.9,62.1,79.9,62.8z"/>
	<path class="st2" d="M63.6,59.6c0.1,0.2,0.2,0.3,0.3,0.5l0-1.6l-0.3,0C63.6,58.9,63.6,59.2,63.6,59.6z"/>
	<path class="st2" d="M72.3,59.2c0,1-0.2,1.3-1.2,1.3h-1c-1,0-1.2-0.3-1.2-1.3s0.3-1.3,1.2-1.3h1C72,57.9,72.3,58.2,72.3,59.2z"/>
	<path class="st2" d="M76,59.2c0,1-0.3,1.3-1.2,1.3h-1c-1,0-1.2-0.3-1.2-1.3s0.2-1.3,1.2-1.3h1C75.7,57.9,76,58.2,76,59.2z"/>
	<path class="st2" d="M79.6,59.2c0,1-0.3,1.3-1.2,1.3h-1c-1,0-1.2-0.3-1.2-1.3s0.2-1.3,1.2-1.3h1C79.4,57.9,79.6,58.2,79.6,59.2z"/>
	<path class="st2" d="M68.6,59.2c0,1-0.3,1.3-1.2,1.3h-1c-1,0-1.2-0.3-1.2-1.3s0.2-1.3,1.2-1.3h1C68.3,57.9,68.6,58.2,68.6,59.2z"/>
	<path class="st2" d="M74,61.9c0,1-0.3,1.3-1.2,1.3h-1c-1,0-1.2-0.3-1.2-1.3s0.2-1.3,1.2-1.3h1C73.7,60.7,74,60.9,74,61.9z"/>
	<path class="st2" d="M77.6,61.9c0,1-0.3,1.3-1.2,1.3h-1c-1,0-1.2-0.3-1.2-1.3s0.2-1.3,1.2-1.3h1C77.4,60.7,77.6,60.9,77.6,61.9z"/>
	<path class="st2" d="M72.3,53.7c0,1-0.2,1.3-1.2,1.3h-1c-1,0-1.2-0.3-1.2-1.3s0.3-1.3,1.2-1.3h1C72,52.4,72.3,52.7,72.3,53.7z"/>
	<path class="st2" d="M76,53.7c0,1-0.3,1.3-1.2,1.3h-1c-1,0-1.2-0.3-1.2-1.3s0.2-1.3,1.2-1.3h1C75.7,52.4,76,52.7,76,53.7z"/>
	<path class="st2" d="M79,54.5L79,54.5c-0.1,0.3-0.4,0.4-0.9,0.4h-0.8c-0.8,0-1.1-0.3-1.1-1.3s0.2-1.3,1.1-1.3h0.8
		c0.2,0,0.3,0,0.5,0C78.7,53.1,78.9,53.8,79,54.5z"/>
	<path class="st2" d="M68.6,53.7c0,1-0.2,1.3-1.1,1.3h-0.8c-0.5,0-0.8-0.1-0.9-0.4v0c0.1-0.7,0.3-1.4,0.5-2c0.1,0,0.3,0,0.5,0h0.8
		C68.4,52.4,68.6,52.7,68.6,53.7z"/>
	<path class="st2" d="M70.3,56.4c0,1-0.2,1.3-1.2,1.3h-1c-1,0-1.2-0.3-1.2-1.3s0.3-1.3,1.2-1.3h1C70,55.2,70.3,55.4,70.3,56.4z"/>
	<path class="st2" d="M74,56.4c0,1-0.3,1.3-1.2,1.3h-1c-1,0-1.2-0.3-1.2-1.3s0.2-1.3,1.2-1.3h1C73.7,55.2,74,55.4,74,56.4z"/>
	<path class="st2" d="M77.6,56.4c0,1-0.3,1.3-1.2,1.3h-1c-1,0-1.2-0.3-1.2-1.3s0.2-1.3,1.2-1.3h1C77.4,55.2,77.6,55.4,77.6,56.4z"/>
	<path class="st2" d="M79.5,57.4c-0.1,0.2-0.3,0.3-0.5,0.3h-0.5c-0.5,0-0.6-0.3-0.6-1.3s0.1-1.3,0.6-1.3H79c0,0,0.1,0,0.1,0
		C79.3,55.9,79.4,56.7,79.5,57.4z"/>
	<path class="st2" d="M66.6,56.4c0,1-0.1,1.3-0.5,1.3h-0.4c-0.2,0-0.3-0.1-0.4-0.2c0.1-0.8,0.2-1.5,0.4-2.3c0,0,0,0,0,0h0.4
		C66.5,55.2,66.6,55.4,66.6,56.4z"/>
	<path class="st2" d="M72.3,48.2c0,1-0.2,1.3-1.2,1.3h-1c-1,0-1.2-0.3-1.2-1.3s0.3-1.3,1.2-1.3h1C72,46.9,72.3,47.2,72.3,48.2z"/>
	<path class="st2" d="M76,48.2c0,1-0.3,1.3-1.2,1.3h-1c-1,0-1.2-0.3-1.2-1.3s0.2-1.3,1.2-1.3h1C75.7,46.9,76,47.2,76,48.2z"/>
	<path class="st2" d="M77.5,49.2c-0.1,0.2-0.2,0.2-0.4,0.2h-0.4c-0.4,0-0.5-0.3-0.5-1.3c0-0.8,0.1-1.1,0.3-1.2
		C76.9,47.6,77.2,48.4,77.5,49.2z"/>
	<path class="st2" d="M68.6,48.2c0,1-0.1,1.3-0.5,1.3h-0.4c-0.2,0-0.3,0-0.4-0.2c0.3-0.8,0.7-1.6,1-2.3
		C68.5,47.1,68.6,47.4,68.6,48.2z"/>
	<path class="st2" d="M70.3,50.9c0,1-0.2,1.3-1.2,1.3h-1c-1,0-1.2-0.3-1.2-1.3c0-0.2,0-0.4,0-0.5c0-0.1,0.1-0.2,0.1-0.3
		c0.2-0.3,0.5-0.4,1.1-0.4h1C70,49.7,70.3,49.9,70.3,50.9z"/>
	<path class="st2" d="M74,50.9c0,1-0.3,1.3-1.2,1.3h-1c-1,0-1.2-0.3-1.2-1.3s0.2-1.3,1.2-1.3h1C73.7,49.7,74,49.9,74,50.9z"/>
	<path class="st2" d="M77.6,50.9c0,1-0.3,1.3-1.2,1.3h-1c-1,0-1.2-0.3-1.2-1.3s0.2-1.3,1.2-1.3h1C77.4,49.7,77.6,49.9,77.6,50.9z"/>
	<path class="st2" d="M70.3,45.4c0,1-0.1,1.3-0.7,1.3h-0.5c-0.2,0-0.4,0-0.5-0.2c0.5-0.8,1-1.5,1.6-2.1
		C70.2,44.6,70.3,44.9,70.3,45.4z"/>
	<path class="st2" d="M74,45.4c0,1-0.3,1.3-1.2,1.3h-1c-1,0-1.2-0.3-1.2-1.3s0.2-1.3,1.2-1.3h1C73.7,44.2,74,44.4,74,45.4z"/>
	<path class="st2" d="M76.1,46.2c-0.1,0.3-0.3,0.4-0.6,0.4h-0.5c-0.6,0-0.7-0.3-0.7-1.3c0-0.7,0.1-1,0.3-1.1
		C75,44.8,75.6,45.4,76.1,46.2z"/>
	<path class="st2" d="M75.7,64.7c0,1-0.3,1.3-1.2,1.3h-1c-1,0-1.2-0.3-1.2-1.3s0.2-1.3,1.2-1.3h1C75.5,63.4,75.7,63.7,75.7,64.7z"/>
	<path class="st2" d="M79.9,62.8V63c-0.1,0.1-0.3,0.2-0.6,0.2h-0.6c-0.6,0-0.8-0.3-0.8-1.3s0.2-1.3,0.8-1.3h0.6c0.2,0,0.4,0,0.5,0.1
		C79.9,61.5,79.9,62.1,79.9,62.8z"/>
	<path class="st2" d="M79.4,64.7c0,1-0.3,1.3-1.2,1.3h-1c-1,0-1.2-0.3-1.2-1.3s0.2-1.3,1.2-1.3h1C79.1,63.4,79.4,63.7,79.4,64.7z"/>
	<g class="st2">
		<path d="M64.4,55.6l-1.1-2.2l-0.7,2.9l0.3,2.3l1,1.6C64,58.7,64.2,57.1,64.4,55.6z"/>
	</g>
	<g class="st2">
		<path d="M78.4,49.1c0.7,1.8,1.2,3.9,1.6,6c1.2-4.5,2.9-7.1,3.9-9.2C84.4,44.7,81.6,46.1,78.4,49.1z"/>
	</g>
	<path class="st2" d="M71.9,68.7h0.8c1,0,1.2-0.3,1.2-1.3s-0.3-1.3-1.2-1.3h-1c-0.8,0-1.1,0.2-1.2,0.7C71,67.4,71.4,68,71.9,68.7z"
		/>
	<path class="st2" d="M69.8,65.9h0.9c1,0,1.2-0.3,1.2-1.3s-0.2-1.3-1.2-1.3h-1c-0.9,0-1.2,0.2-1.2,0.9C69,64.8,69.4,65.3,69.8,65.9z
		"/>
	<g class="st2">
		<path d="M66.6,61.9C66.6,61.9,66.6,61.9,66.6,61.9c0-1-0.1-1.3-0.7-1.3h-0.3C65.9,61.1,66.2,61.5,66.6,61.9z"/>
	</g>
	<path class="st2" d="M66.9,62.4c0,0,0.3,0.3,0.7,0.8c0.1,0,0.3,0,0.5,0h1c1,0,1.2-0.3,1.2-1.3S70,60.7,69,60.7h-1
		c-1,0-1.2,0.3-1.2,1.3c0,0.1,0,0.2,0,0.3C66.9,62.3,66.9,62.3,66.9,62.4z"/>
	<path class="st2" d="M49.1,52.2c8.1,0.6,11.2,3.2,13.5,6.2c0,0,0,0,0,0c0.1,0.1,0.8,1.3,0.9,1.5c0.1,0.3,0.1,0.6,0.1,0.9
		c0,0.3-0.4,17.5-0.4,17.5c0.1,9.8,3.2,9.8,7.3,10.3c18.2,2.3-1.4-22.2-4.5-25.6c-0.9-1-1.6-2-2.3-2.9c-0.1-0.2-0.2-0.3-0.3-0.5
		c0-0.4,0-0.8,0-1.1c0-2.6,0-3.1,0-3.2C63.5,44.2,44.8,51.9,49.1,52.2z"/>
	<path class="st2" d="M74.5,71.4c0,0,0.1,0,0.1,0c0.4-0.6,0.7-1.1,1.1-1.5c0-0.8-0.3-1-1.2-1h-1c-0.6,0-1,0.1-1.1,0.4
		c0.5,0.7,0.9,1.4,1.4,2.1L74.5,71.4L74.5,71.4z"/>
	<path class="st2" d="M75.4,68.7h1c0.1,0,0.2,0,0.3,0c0.2-0.2,0.3-0.4,0.5-0.5c0.1-0.1,0.3-0.3,0.4-0.4c0-0.1,0-0.2,0-0.4
		c0-1-0.3-1.3-1.2-1.3h-1c-1,0-1.2,0.3-1.2,1.3S74.4,68.7,75.4,68.7z"/>
	<g class="st2">
		<path d="M79.2,66.2h-0.5c-0.6,0-0.8,0.3-0.8,1.3c0,0,0,0.1,0,0.1C78.3,67.1,78.8,66.6,79.2,66.2z"/>
	</g>
	<g class="st2">
		<path d="M80.4,62.9c0,0.1,0,0.5,0.1,2.5c0,0.3,0,0.5,0,0.8c-0.1,0.1-0.2,0.3-0.3,0.4c-0.7,0.8-1.4,1.6-2.3,2.3
			c-0.7,0.6-1.9,2.1-3.1,4.1c3.1,5,5.6,10.5,4.1,13.8c-0.2,0.4-0.5,0.8-0.8,1.2c1.7-0.9,2.8-2.8,2.8-7.3c0,0-0.5-13.2-0.5-13.5
			c0-0.2,0-0.5,0.1-0.7c0.1-0.2,0.8-1.1,0.9-1.2c0,0,0,0,0,0c2.3-2.3,5.4-4.4,13.5-4.9C99.2,60.2,80.4,54.4,80.4,62.9z"/>
	</g>
</g>
</svg>
